# xmcd
#
# Track frame offsets:
#	150
#	15935
#	36696
#	50397
#	66157
#	83546
#	105928
#	125681
#	142667
#	160684
#	181409
#	191179
#	207220
#	234831
#	255932
#	271257
#	287836
#
# Disc length: 4424 seconds
# Revision: 0
# Processed by: cddbd v1.5.2PL0 Copyright (c) Steve Scherf et al.
# Submitted via: dBpowerAMP V12.0
#
DISCID=dd114611
DTITLE=Tom Waits - Tales from the underground I
DYEAR=1996
DGENRE=Jazz Blues
TTITLE0=Blue skies
TTITLE1=Jersey girl
TTITLE2=Whistlin' past the graveyard
TTITLE3=Mr Henry
TTITLE4=Downtown train
TTITLE5=I'm not your fool anymore
TTITLE6=Adios lounge
TTITLE7=Sea of love
TTITLE8=Silent night
TTITLE9=Little man
TTITLE10=What keeps mankind alive
TTITLE11=The dwarf's machine song
TTITLE12=The piano has been drinking
TTITLE13=It's alright with me
TTITLE14=Tommy the cat
TTITLE15=Filipino box spring hog
TTITLE16=16 shells from a thirty-ought-six, rain dogs [Live][Nov 16th 1985 Paris]
EXTD=
EXTT0=
EXTT1=
EXTT2=
EXTT3=
EXTT4=
EXTT5=
EXTT6=
EXTT7=
EXTT8=
EXTT9=
EXTT10=
EXTT11=
EXTT12=
EXTT13=
EXTT14=
EXTT15=
EXTT16=
PLAYORDER=
